<svg width="101" height="116" viewBox="0 0 101 116" fill="none" xmlns="http://www.w3.org/2000/svg">
<g filter="url(#filter0_d_1_406)">
<circle cx="58.0716" cy="43.9286" r="13.9286" fill="#DC7000"/>
<circle cx="58.0716" cy="43.9286" r="12.9286" stroke="#DC7000" stroke-width="2"/>
</g>
<path d="M54.009 43.3481H60.892L58.7853 40.8177C58.6868 40.6992 58.6394 40.5464 58.6536 40.393C58.6677 40.2395 58.7423 40.098 58.8608 39.9994C58.9793 39.9009 59.1321 39.8535 59.2856 39.8677C59.439 39.8818 59.5806 39.9564 59.6791 40.0749L62.5809 43.557C62.6004 43.5847 62.6179 43.6138 62.6331 43.6441C62.6331 43.6731 62.6331 43.6905 62.6737 43.7195C62.7 43.7861 62.7138 43.8569 62.7144 43.9285C62.7138 44 62.7 44.0708 62.6737 44.1374C62.6737 44.1664 62.6737 44.1838 62.6331 44.2128C62.6179 44.2431 62.6004 44.2722 62.5809 44.2999L59.6791 47.782C59.6245 47.8475 59.5562 47.9002 59.479 47.9363C59.4017 47.9725 59.3175 47.9911 59.2322 47.991C59.0966 47.9912 58.9652 47.944 58.8608 47.8575C58.802 47.8088 58.7534 47.7489 58.7178 47.6814C58.6822 47.6139 58.6603 47.54 58.6533 47.464C58.6463 47.388 58.6543 47.3113 58.677 47.2384C58.6997 47.1655 58.7365 47.0978 58.7853 47.0392L60.892 44.5088H54.009C53.8551 44.5088 53.7075 44.4477 53.5986 44.3388C53.4898 44.23 53.4286 44.0824 53.4286 43.9285C53.4286 43.7745 53.4898 43.6269 53.5986 43.5181C53.7075 43.4092 53.8551 43.3481 54.009 43.3481Z" fill="white"/>
<defs>
<filter id="filter0_d_1_406" x="0.143066" y="0" width="115.857" height="115.857" filterUnits="userSpaceOnUse" color-interpolation-filters="sRGB">
<feFlood flood-opacity="0" result="BackgroundImageFix"/>
<feColorMatrix in="SourceAlpha" type="matrix" values="0 0 0 0 0 0 0 0 0 0 0 0 0 0 0 0 0 0 127 0" result="hardAlpha"/>
<feOffset dy="14"/>
<feGaussianBlur stdDeviation="22"/>
<feColorMatrix type="matrix" values="0 0 0 0 0.0561111 0 0 0 0 0.0777333 0 0 0 0 0.133333 0 0 0 0.08 0"/>
<feBlend mode="normal" in2="BackgroundImageFix" result="effect1_dropShadow_1_406"/>
<feBlend mode="normal" in="SourceGraphic" in2="effect1_dropShadow_1_406" result="shape"/>
</filter>
</defs>
</svg>
