<svg width="28" height="28" viewBox="0 0 28 28" fill="none" xmlns="http://www.w3.org/2000/svg">
<circle cx="13.9286" cy="13.9286" r="12.9286" stroke="#DC7000" stroke-width="2"/>
<path d="M17.9912 13.3481H11.1082L13.2149 10.8177C13.3134 10.6992 13.3608 10.5464 13.3467 10.393C13.3325 10.2395 13.258 10.098 13.1395 9.99944C13.0209 9.90093 12.8681 9.85354 12.7147 9.86769C12.5612 9.88184 12.4197 9.95637 12.3212 10.0749L9.41937 13.557C9.39985 13.5847 9.38239 13.6138 9.36714 13.6441C9.36714 13.6731 9.36714 13.6905 9.32651 13.7195C9.30021 13.7861 9.28643 13.8569 9.28589 13.9285C9.28643 14 9.30021 14.0708 9.32651 14.1374C9.32651 14.1664 9.32651 14.1838 9.36714 14.2128C9.38239 14.2431 9.39985 14.2722 9.41937 14.2999L12.3212 17.782C12.3757 17.8475 12.4441 17.9002 12.5213 17.9363C12.5985 17.9725 12.6828 17.9911 12.768 17.991C12.9036 17.9912 13.035 17.944 13.1395 17.8575C13.1982 17.8088 13.2468 17.7489 13.2824 17.6814C13.318 17.6139 13.34 17.54 13.347 17.464C13.354 17.388 13.3459 17.3113 13.3233 17.2384C13.3006 17.1655 13.2638 17.0978 13.2149 17.0392L11.1082 14.5088H17.9912C18.1452 14.5088 18.2928 14.4477 18.4016 14.3388C18.5105 14.23 18.5716 14.0824 18.5716 13.9285C18.5716 13.7745 18.5105 13.6269 18.4016 13.5181C18.2928 13.4092 18.1452 13.3481 17.9912 13.3481Z" fill="#DC7000"/>
</svg>
