<svg width="11" height="12" viewBox="0 0 11 12" fill="none" xmlns="http://www.w3.org/2000/svg">
<g clip-path="url(#clip0_1_391)">
<path d="M8.95908 4.41386L6.45975 4.05062L5.34249 1.78557C5.31197 1.72356 5.26177 1.67336 5.19975 1.64284C5.04422 1.56606 4.85522 1.63004 4.77746 1.78557L3.66019 4.05062L1.16086 4.41386C1.09196 4.4237 1.02896 4.45618 0.980723 4.5054C0.922411 4.56534 0.890278 4.64597 0.891385 4.72959C0.892493 4.8132 0.92675 4.89295 0.98663 4.95132L2.79493 6.71434L2.36771 9.20382C2.35769 9.26173 2.3641 9.32129 2.38621 9.37575C2.40831 9.4302 2.44524 9.47737 2.49279 9.51191C2.54034 9.54645 2.59662 9.56697 2.65524 9.57115C2.71387 9.57533 2.77249 9.563 2.82446 9.53556L5.05997 8.36021L7.29549 9.53556C7.35652 9.56804 7.4274 9.57887 7.49532 9.56706C7.6666 9.53753 7.78177 9.37511 7.75224 9.20382L7.32502 6.71434L9.13332 4.95132C9.18254 4.90309 9.21502 4.84009 9.22486 4.77118C9.25144 4.59892 9.13135 4.43945 8.95908 4.41386Z" fill="#FEA250"/>
</g>
<defs>
<clipPath id="clip0_1_391">
<rect width="10.08" height="10.08" fill="white" transform="translate(0.0200195 0.937988)"/>
</clipPath>
</defs>
</svg>
