<svg width="55" height="56" viewBox="0 0 55 56" fill="none" xmlns="http://www.w3.org/2000/svg">
<rect y="0.5" width="55" height="55" rx="27.5" fill="#FFECEC"/>
<path fill-rule="evenodd" clip-rule="evenodd" d="M27.5001 26.8C28.4549 26.8 29.3706 26.4207 30.0457 25.7456C30.7208 25.0704 31.1001 24.1548 31.1001 23.2C31.1001 22.2452 30.7208 21.3295 30.0457 20.6544C29.3706 19.9793 28.4549 19.6 27.5001 19.6C26.5453 19.6 25.6296 19.9793 24.9545 20.6544C24.2794 21.3295 23.9001 22.2452 23.9001 23.2C23.9001 24.1548 24.2794 25.0704 24.9545 25.7456C25.6296 26.4207 26.5453 26.8 27.5001 26.8ZM22.3988 37.6C20.577 37.6 19.0423 36.0686 19.7395 34.3854C20.1616 33.3663 20.7804 32.4403 21.5604 31.6603C22.3404 30.8803 23.2664 30.2615 24.2856 29.8394C25.3047 29.4172 26.397 29.2 27.5001 29.2C28.6032 29.2 29.6955 29.4172 30.7146 29.8394C31.7338 30.2615 32.6598 30.8803 33.4398 31.6603C34.2198 32.4403 34.8385 33.3663 35.2607 34.3854C35.9579 36.0686 34.4232 37.6 32.6014 37.6H22.3988Z" fill="#DC7000"/>
</svg>
