<svg width="30" height="30" viewBox="0 0 30 30" fill="none" xmlns="http://www.w3.org/2000/svg">
<g clip-path="url(#clip0_0_996)">
<path d="M10.0762 12.3489C11.1043 11.3208 11.1043 9.64807 10.0762 8.61999L6.46055 5.00434C5.90748 4.45122 5.14078 4.17096 4.35779 4.23542C3.58975 4.29864 2.89506 4.69016 2.45191 5.3095C2.35992 5.43805 2.27109 5.56848 2.18408 5.69997L9.45457 12.9705L10.0762 12.3489Z" fill="black"/>
<path d="M24.9955 23.5394L21.3798 19.9237C20.3519 18.8958 18.679 18.8956 17.6509 19.9237L17.0293 20.5454L24.3001 27.8161C24.4316 27.7291 24.5618 27.6399 24.6903 27.548C25.3096 27.1049 25.7011 26.4102 25.7644 25.6421C25.8289 24.859 25.5486 24.0926 24.9955 23.5394Z" fill="black"/>
<path d="M14.5437 21.939C13.8394 21.939 13.1773 21.6648 12.6793 21.1668L8.83317 17.3207C8.33518 16.8227 8.06084 16.1605 8.06084 15.4562C8.06084 15.0561 8.14961 14.6698 8.31731 14.3193L1.28594 7.28784C0.296879 9.36458 -0.140816 11.6913 0.0397697 14.0267C0.28311 17.1738 1.64026 20.1301 3.86131 22.3511L7.64893 26.1386C9.86987 28.3596 12.8262 29.7168 15.9733 29.9602C16.3172 29.9868 16.6608 30 17.0035 30C18.9884 30 20.9412 29.5575 22.7121 28.7141L15.6806 21.6826C15.3302 21.8503 14.9438 21.939 14.5437 21.939Z" fill="black"/>
<path d="M17.6953 0C17.2099 0 16.8164 0.393516 16.8164 0.878906C16.8164 1.3643 17.2099 1.75781 17.6953 1.75781C23.5109 1.75781 28.2422 6.48914 28.2422 12.3047C28.2422 12.7901 28.6357 13.1836 29.1211 13.1836C29.6065 13.1836 30 12.7901 30 12.3047C30 5.51988 24.4801 0 17.6953 0Z" fill="black"/>
<path d="M17.6953 12.3039C17.6953 12.3039 17.6953 12.3042 17.6953 12.3047C17.6953 12.7901 18.0888 13.1836 18.5742 13.1836C19.0596 13.1836 19.4531 12.7901 19.4531 12.3047C19.4531 11.3354 18.6646 10.5469 17.6953 10.5469C17.2099 10.5469 16.8164 10.94 16.8164 11.4254C16.8164 11.9108 17.2099 12.3039 17.6953 12.3039Z" fill="black"/>
<path d="M17.6953 8.78906C19.6338 8.78906 21.2109 10.3662 21.2109 12.3047C21.2109 12.7901 21.6045 13.1836 22.0898 13.1836C22.5752 13.1836 22.9688 12.7901 22.9688 12.3047C22.9688 9.39691 20.6031 7.03125 17.6953 7.03125C17.2099 7.03125 16.8164 7.42477 16.8164 7.91016C16.8164 8.39555 17.2099 8.78906 17.6953 8.78906Z" fill="black"/>
<path d="M17.6953 3.51562C17.2099 3.51562 16.8164 3.90914 16.8164 4.39453C16.8164 4.87992 17.2099 5.27344 17.6953 5.27344C21.5723 5.27344 24.7266 8.42766 24.7266 12.3047C24.7266 12.7901 25.1201 13.1836 25.6055 13.1836C26.0909 13.1836 26.4844 12.7901 26.4844 12.3047C26.4844 7.4584 22.5416 3.51562 17.6953 3.51562Z" fill="black"/>
</g>
<defs>
<clipPath id="clip0_0_996">
<rect width="30" height="30" fill="white"/>
</clipPath>
</defs>
</svg>
