<svg width="21" height="21" viewBox="0 0 21 21" fill="none" xmlns="http://www.w3.org/2000/svg">
<g clip-path="url(#clip0_1_30)">
<path d="M1.26222 11.974C1.34814 11.9879 1.4351 11.9944 1.52211 11.9933L16.3372 11.9933L16.0141 12.1435C15.6984 12.293 15.4111 12.4964 15.1652 12.7445L11.0107 16.899C10.4635 17.4214 10.3716 18.2616 10.7928 18.8899C11.2831 19.5594 12.2232 19.7048 12.8928 19.2145C12.9469 19.1749 12.9983 19.1317 13.0466 19.0852L20.5593 11.5725C21.1464 10.9861 21.147 10.0347 20.5605 9.44762C20.5601 9.44725 20.5597 9.44682 20.5593 9.44645L13.0466 1.93375C12.459 1.34781 11.5077 1.34912 10.9217 1.93671C10.8756 1.98296 10.8325 2.03217 10.7928 2.08401C10.3716 2.7123 10.4635 3.55255 11.0107 4.07487L15.1577 8.2369C15.3781 8.45759 15.6316 8.64264 15.909 8.78533L16.3597 8.98817L1.6048 8.98817C0.837233 8.95967 0.163813 9.49584 0.0196152 10.2503C-0.113218 11.0694 0.443098 11.8411 1.26222 11.974Z" fill="#DC7000"/>
</g>
<defs>
<clipPath id="clip0_1_30">
<rect width="21" height="21" fill="white" transform="matrix(-1 0 0 -1 21 21)"/>
</clipPath>
</defs>
</svg>
