<svg width="71" height="31" viewBox="0 0 69 19" fill="none" xmlns="http://www.w3.org/2000/svg">
<path d="M4.825 14.7H10.425V18H0.55V0.449999H4.825V14.7ZM20.7641 18.175C19.1141 18.175 17.5974 17.7917 16.2141 17.025C14.8474 16.2583 13.7557 15.1917 12.9391 13.825C12.1391 12.4417 11.7391 10.8917 11.7391 9.175C11.7391 7.45833 12.1391 5.91667 12.9391 4.55C13.7557 3.18333 14.8474 2.11667 16.2141 1.35C17.5974 0.583333 19.1141 0.2 20.7641 0.2C22.4141 0.2 23.9224 0.583333 25.2891 1.35C26.6724 2.11667 27.7557 3.18333 28.5391 4.55C29.3391 5.91667 29.7391 7.45833 29.7391 9.175C29.7391 10.8917 29.3391 12.4417 28.5391 13.825C27.7391 15.1917 26.6557 16.2583 25.2891 17.025C23.9224 17.7917 22.4141 18.175 20.7641 18.175ZM20.7641 14.275C22.1641 14.275 23.2807 13.8083 24.1141 12.875C24.9641 11.9417 25.3891 10.7083 25.3891 9.175C25.3891 7.625 24.9641 6.39167 24.1141 5.475C23.2807 4.54167 22.1641 4.075 20.7641 4.075C19.3474 4.075 18.2141 4.53333 17.3641 5.45C16.5307 6.36667 16.1141 7.60833 16.1141 9.175C16.1141 10.725 16.5307 11.9667 17.3641 12.9C18.2141 13.8167 19.3474 14.275 20.7641 14.275ZM43.7674 6C43.4507 5.41667 42.9924 4.975 42.3924 4.675C41.8091 4.35833 41.1174 4.2 40.3174 4.2C38.934 4.2 37.8257 4.65833 36.9924 5.575C36.159 6.475 35.7424 7.68333 35.7424 9.2C35.7424 10.8167 36.1757 12.0833 37.0424 13C37.9257 13.9 39.134 14.35 40.6674 14.35C41.7174 14.35 42.6007 14.0833 43.3174 13.55C44.0507 13.0167 44.584 12.25 44.9174 11.25H39.4924V8.1H48.7924V12.075C48.4757 13.1417 47.9341 14.1333 47.1674 15.05C46.4174 15.9667 45.459 16.7083 44.2924 17.275C43.1257 17.8417 41.8091 18.125 40.3424 18.125C38.609 18.125 37.059 17.75 35.6924 17C34.3424 16.2333 33.284 15.175 32.5174 13.825C31.7674 12.475 31.3924 10.9333 31.3924 9.2C31.3924 7.46667 31.7674 5.925 32.5174 4.575C33.284 3.20833 34.3424 2.15 35.6924 1.4C37.0424 0.633332 38.584 0.249999 40.3174 0.249999C42.4174 0.249999 44.1841 0.758332 45.6174 1.775C47.0674 2.79167 48.0257 4.2 48.4924 6H43.7674ZM59.4604 18.175C57.8104 18.175 56.2937 17.7917 54.9104 17.025C53.5437 16.2583 52.452 15.1917 51.6354 13.825C50.8354 12.4417 50.4354 10.8917 50.4354 9.175C50.4354 7.45833 50.8354 5.91667 51.6354 4.55C52.452 3.18333 53.5437 2.11667 54.9104 1.35C56.2937 0.583333 57.8104 0.2 59.4604 0.2C61.1104 0.2 62.6187 0.583333 63.9854 1.35C65.3687 2.11667 66.452 3.18333 67.2354 4.55C68.0354 5.91667 68.4354 7.45833 68.4354 9.175C68.4354 10.8917 68.0354 12.4417 67.2354 13.825C66.4354 15.1917 65.352 16.2583 63.9854 17.025C62.6187 17.7917 61.1104 18.175 59.4604 18.175ZM59.4604 14.275C60.8604 14.275 61.977 13.8083 62.8104 12.875C63.6604 11.9417 64.0854 10.7083 64.0854 9.175C64.0854 7.625 63.6604 6.39167 62.8104 5.475C61.977 4.54167 60.8604 4.075 59.4604 4.075C58.0437 4.075 56.9104 4.53333 56.0604 5.45C55.227 6.36667 54.8104 7.60833 54.8104 9.175C54.8104 10.725 55.227 11.9667 56.0604 12.9C56.9104 13.8167 58.0437 14.275 59.4604 14.275Z" fill="white"/>
</svg>
