<svg width="65" height="65" viewBox="0 0 65 65" fill="none" xmlns="http://www.w3.org/2000/svg">
<circle cx="32.5" cy="32.5" r="32.5" fill="#DC7000" fill-opacity="0.09"/>
<g clip-path="url(#clip0_1_34)">
<path d="M38.7441 17.627H26.2559C25.0521 17.627 24.072 18.6071 24.072 19.8108V45.1884C24.072 46.3926 25.0521 47.3727 26.2559 47.3727H38.7436C39.9478 47.3727 40.928 46.3926 40.928 45.1889V19.8108C40.928 18.6071 39.9478 17.627 38.7441 17.627ZM25.0635 21.5931H39.9364V40.432H25.0635V21.5931ZM26.2559 18.6185H38.7436C39.4015 18.6185 39.9364 19.1534 39.9364 19.8108V20.6015H25.0635V19.8108C25.0635 19.1534 25.5985 18.6185 26.2559 18.6185ZM38.7441 46.3812H26.2559C25.5985 46.3812 25.0635 45.8463 25.0635 45.1889V41.4236H39.9364V45.1889C39.9364 45.8463 39.4015 46.3812 38.7441 46.3812Z" fill="#DC7000"/>
<path d="M32.5001 41.9194C31.4065 41.9194 30.5171 42.8088 30.5171 43.9025C30.5171 44.9961 31.4065 45.8855 32.5001 45.8855C33.5938 45.8855 34.4832 44.9961 34.4832 43.9025C34.4832 42.8088 33.5938 41.9194 32.5001 41.9194ZM32.5001 44.894C31.9533 44.894 31.5086 44.4493 31.5086 43.9025C31.5086 43.3557 31.9533 42.911 32.5001 42.911C33.047 42.911 33.4917 43.3557 33.4917 43.9025C33.4917 44.4493 33.047 44.894 32.5001 44.894Z" fill="#DC7000"/>
<path d="M30.517 20.1058H32.5001C32.7742 20.1058 32.9958 19.8842 32.9958 19.61C32.9958 19.3359 32.7742 19.1143 32.5001 19.1143H30.517C30.2428 19.1143 30.0212 19.3359 30.0212 19.61C30.0212 19.8842 30.2428 20.1058 30.517 20.1058Z" fill="#DC7000"/>
<path d="M33.9875 20.1058H34.4832C34.7574 20.1058 34.979 19.8842 34.979 19.61C34.979 19.3359 34.7574 19.1143 34.4832 19.1143H33.9875C33.7133 19.1143 33.4917 19.3359 33.4917 19.61C33.4917 19.8842 33.7133 20.1058 33.9875 20.1058Z" fill="#DC7000"/>
<path d="M45.6933 19.892C45.4995 19.6981 45.1861 19.6981 44.9923 19.892C44.7985 20.0858 44.7985 20.3991 44.9923 20.593C46.8445 22.4451 46.8445 25.4589 44.9923 27.3115C44.7985 27.5054 44.7985 27.8187 44.9923 28.0126C45.089 28.1092 45.2159 28.1578 45.3428 28.1578C45.4697 28.1578 45.5966 28.1092 45.6933 28.0126C47.9322 25.7742 47.9322 22.1308 45.6933 19.892Z" fill="#DC7000"/>
<path d="M43.6057 21.0204C43.4118 20.8265 43.0985 20.8265 42.9047 21.0204C42.7108 21.2142 42.7108 21.5275 42.9047 21.7214C43.5179 22.3346 43.8555 23.1517 43.8555 24.0212C43.8555 24.8908 43.5179 25.7073 42.9047 26.3206C42.7108 26.5144 42.7108 26.8277 42.9047 27.0216C43.0013 27.1183 43.1282 27.1668 43.2552 27.1668C43.3821 27.1668 43.509 27.1183 43.6057 27.0216C44.4063 26.2214 44.8471 25.1555 44.8471 24.0212C44.8471 22.8869 44.4068 21.8205 43.6057 21.0204Z" fill="#DC7000"/>
<path d="M20.0078 20.593C20.2017 20.3991 20.2017 20.0858 20.0078 19.892C19.814 19.6981 19.5007 19.6981 19.3068 19.892C17.068 22.1308 17.068 25.7737 19.3068 28.0126C19.4035 28.1092 19.5304 28.1578 19.6573 28.1578C19.7843 28.1578 19.9112 28.1092 20.0078 28.0126C20.2017 27.8187 20.2017 27.5054 20.0078 27.3115C18.1552 25.4594 18.1552 22.4456 20.0078 20.593Z" fill="#DC7000"/>
<path d="M22.0955 20.8837C21.9016 20.6898 21.5883 20.6898 21.3945 20.8837C20.5938 21.6838 20.1531 22.7497 20.1531 23.884C20.1531 25.0183 20.5938 26.0842 21.3945 26.8849C21.4911 26.9815 21.6181 27.0301 21.745 27.0301C21.8719 27.0301 21.9988 26.9815 22.0955 26.8849C22.2893 26.691 22.2893 26.3777 22.0955 26.1839C21.4822 25.5706 21.1446 24.7536 21.1446 23.884C21.1446 23.0145 21.4817 22.1979 22.0955 21.5847C22.2888 21.3913 22.2888 21.0775 22.0955 20.8837Z" fill="#DC7000"/>
</g>
<defs>
<clipPath id="clip0_1_34">
<rect width="29.7458" height="29.7458" fill="white" transform="translate(17.6272 17.627)"/>
</clipPath>
</defs>
</svg>
